<?xml version="1.0" encoding="UTF-8"?>
<svg id="Calque_1" data-name="Calque 1" xmlns="http://www.w3.org/2000/svg" viewBox="0 0 249.27 250">
  <path d="M249.22,114.91h-81.1c-4.57-19.79-22.3-34.54-43.49-34.54s-38.92,14.75-43.49,34.54H.06C5.18,50.6,59,0,124.63,0s119.46,50.6,124.59,114.91Z"/>
  <path d="M249.27,134.52c-4.86,64.59-58.8,115.48-124.64,115.48S4.86,199.11,0,134.52h81.02c4.36,20.07,22.23,35.11,43.61,35.11s39.25-15.04,43.61-35.11h81.03Z"/>
  <path d="M151.47,125c0,3.34-.62,6.55-1.74,9.52-3.84,10.12-13.62,17.32-25.09,17.32s-21.26-7.2-25.09-17.32c-1.13-2.96-1.74-6.17-1.74-9.52,0-3.57.69-6.97,1.97-10.09,3.98-9.82,13.62-16.75,24.87-16.75s20.89,6.93,24.87,16.75c1.27,3.12,1.97,6.52,1.97,10.09Z"/>
</svg>